<svg width="29" height="25" viewBox="0 0 29 25" fill="none" xmlns="http://www.w3.org/2000/svg">
<path d="M25.6501 20.3321C25.4532 20.6921 25.1985 21.0321 24.8627 21.3521C24.2954 21.8921 23.6701 22.2821 22.9638 22.5321C22.269 22.7821 21.5164 22.9121 20.7059 22.9121C19.5248 22.9121 18.2627 22.6721 16.9311 22.1821C15.5996 21.6921 14.268 21.0321 12.948 20.2021C11.6164 19.3621 10.3543 18.4321 9.15009 17.4021C7.95746 16.3621 6.88062 15.2721 5.91956 14.1321C4.97009 12.9921 4.20588 11.8521 3.65009 10.7221C3.0943 9.58211 2.81641 8.49211 2.81641 7.45211C2.81641 6.77211 2.95535 6.12211 3.23325 5.52211C3.51114 4.91211 3.95114 4.35211 4.56483 3.85211C5.30588 3.22211 6.11641 2.91211 6.97325 2.91211C7.29746 2.91211 7.62167 2.97211 7.91114 3.09211C8.2122 3.21211 8.47851 3.39211 8.68693 3.65211L11.3732 6.92211C11.5817 7.17211 11.7322 7.40211 11.8364 7.62211C11.9406 7.83211 11.9985 8.04211 11.9985 8.23211C11.9985 8.47211 11.9175 8.71211 11.7554 8.94211C11.6048 9.17211 11.3848 9.41211 11.1069 9.65211L10.2269 10.4421C10.0996 10.5521 10.0417 10.6821 10.0417 10.8421C10.0417 10.9221 10.0532 10.9921 10.0764 11.0721C10.1111 11.1521 10.1459 11.2121 10.169 11.2721C10.3775 11.6021 10.7364 12.0321 11.2459 12.5521C11.7669 13.0721 12.3227 13.6021 12.9248 14.1321C13.5501 14.6621 14.1522 15.1521 14.7659 15.6021C15.368 16.0421 15.8659 16.3421 16.2596 16.5221C16.3175 16.5421 16.3869 16.5721 16.468 16.6021C16.5606 16.6321 16.6532 16.6421 16.7575 16.6421C16.9543 16.6421 17.1048 16.5821 17.2322 16.4721L18.1122 15.7221C18.4017 15.4721 18.6796 15.2821 18.9459 15.1621C19.2122 15.0221 19.4785 14.9521 19.768 14.9521C19.988 14.9521 20.2196 14.9921 20.4743 15.0821C20.729 15.1721 20.9954 15.3021 21.2848 15.4721L25.1175 17.8221C25.4185 18.0021 25.6269 18.2121 25.7543 18.4621C25.8701 18.7121 25.9396 18.9621 25.9396 19.2421C25.9396 19.6021 25.8469 19.9721 25.6501 20.3321Z" stroke="white" stroke-width="1.5"/>
<path d="M21.9218 9.91211C21.9218 9.31211 21.3776 8.39211 20.567 7.64211C19.826 6.95211 18.8418 6.41211 17.8691 6.41211" stroke="white" stroke-width="1.5" stroke-linecap="round" stroke-linejoin="round"/>
<path d="M25.9744 9.91211C25.9744 6.04211 22.3502 2.91211 17.8691 2.91211" stroke="white" stroke-width="1.5" stroke-linecap="round" stroke-linejoin="round"/>
</svg>
