<svg width="211" height="227" viewBox="0 0 211 227" fill="none" xmlns="http://www.w3.org/2000/svg">
<ellipse opacity="0.4" cx="45.1386" cy="44.5281" rx="44.5156" ry="44.5281" fill="url(#paint0_linear_193_165)"/>
<ellipse opacity="0.2" cx="92.4759" cy="134.37" rx="92.4759" ry="92.5019" fill="url(#paint1_linear_193_165)"/>
<path d="M45.4723 192.495H170.489C170.879 192.498 171.265 192.42 171.623 192.266C171.981 192.112 172.303 191.886 172.569 191.601C172.835 191.316 173.039 190.979 173.168 190.612C173.298 190.244 173.349 189.854 173.32 189.465L168.172 107.741C168.106 106.927 167.741 106.166 167.146 105.606C166.551 105.046 165.769 104.727 164.952 104.712H39.9417C39.5522 104.709 39.1662 104.787 38.8083 104.941C38.4503 105.095 38.1281 105.321 37.8621 105.606C37.5961 105.89 37.3919 106.227 37.2626 106.595C37.1332 106.962 37.0815 107.353 37.1106 107.741L42.2593 189.465C42.3244 190.279 42.6891 191.039 43.2828 191.599C43.8764 192.158 44.6567 192.478 45.4723 192.495Z" fill="#263238"/>
<path opacity="0.6" d="M45.4723 192.495H170.489C170.879 192.498 171.265 192.42 171.623 192.266C171.981 192.112 172.303 191.886 172.569 191.601C172.835 191.316 173.039 190.979 173.168 190.612C173.298 190.244 173.349 189.854 173.32 189.465L168.172 107.741C168.106 106.927 167.741 106.166 167.146 105.606C166.551 105.046 165.769 104.727 164.952 104.712H39.9417C39.5522 104.709 39.1662 104.787 38.8083 104.941C38.4503 105.095 38.1281 105.321 37.8621 105.606C37.5961 105.89 37.3919 106.227 37.2626 106.595C37.1332 106.962 37.0815 107.353 37.1106 107.741L42.2593 189.465C42.3244 190.279 42.6891 191.039 43.2828 191.599C43.8764 192.158 44.6567 192.478 45.4723 192.495Z" fill="black"/>
<path d="M46.2965 192.495H171.307C171.697 192.499 172.084 192.421 172.442 192.268C172.801 192.114 173.124 191.888 173.391 191.603C173.658 191.319 173.862 190.981 173.992 190.613C174.122 190.245 174.174 189.854 174.144 189.465L168.996 107.742C168.931 106.927 168.565 106.166 167.97 105.606C167.375 105.046 166.593 104.727 165.776 104.712H40.766C40.3761 104.708 39.9897 104.785 39.6313 104.939C39.2729 105.092 38.9503 105.319 38.684 105.604C38.4178 105.889 38.2137 106.226 38.0847 106.594C37.9557 106.962 37.9047 107.353 37.9349 107.742L43.0835 189.465C43.1486 190.279 43.5134 191.039 44.107 191.599C44.7006 192.158 45.4809 192.478 46.2965 192.495Z" fill="#263238"/>
<path d="M46.5049 193.536H195.257C195.942 193.53 196.614 193.717 197.197 194.078C197.78 194.438 198.248 194.955 198.549 195.571C198.625 195.731 198.659 195.907 198.648 196.084C198.637 196.261 198.581 196.432 198.486 196.581C198.39 196.73 198.258 196.852 198.102 196.936C197.946 197.019 197.771 197.062 197.594 197.059H44.2005C44.0235 197.062 43.8488 197.019 43.6928 196.936C43.5369 196.852 43.4048 196.73 43.3092 196.581C43.2137 196.432 43.1577 196.261 43.1466 196.084C43.1355 195.907 43.1697 195.731 43.2459 195.571C43.5429 194.959 44.0063 194.444 44.5827 194.084C45.1592 193.724 45.8254 193.534 46.5049 193.536Z" fill="#263238"/>
<path opacity="0.6" d="M46.5029 193.536H67.6572C68.3369 193.533 69.0035 193.723 69.5801 194.083C70.1567 194.443 70.6199 194.959 70.9163 195.571C70.9922 195.73 71.0264 195.906 71.0156 196.082C71.0048 196.258 70.9494 196.429 70.8546 196.578C70.7598 196.727 70.6287 196.849 70.4736 196.933C70.3186 197.017 70.1446 197.061 69.9682 197.059H44.1985C44.0215 197.062 43.8467 197.019 43.6908 196.935C43.5348 196.852 43.4028 196.73 43.3072 196.581C43.2116 196.432 43.1556 196.261 43.1445 196.084C43.1334 195.907 43.1676 195.731 43.2438 195.571C43.5409 194.959 44.0042 194.444 44.5806 194.084C45.1571 193.724 45.8233 193.534 46.5029 193.536Z" fill="black"/>
<path d="M59.5222 196.106H64.9869C65.1132 196.104 65.2338 196.053 65.3225 195.963C65.4112 195.873 65.4609 195.752 65.4609 195.625C65.4609 195.499 65.4112 195.378 65.3225 195.288C65.2338 195.198 65.1132 195.146 64.9869 195.145H59.5222C59.4591 195.145 59.3966 195.157 59.3383 195.181C59.2799 195.205 59.2269 195.241 59.1823 195.285C59.1377 195.33 59.1023 195.383 59.0781 195.441C59.054 195.5 59.0415 195.562 59.0415 195.625C59.0415 195.688 59.054 195.751 59.0781 195.809C59.1023 195.868 59.1377 195.921 59.1823 195.965C59.2269 196.01 59.2799 196.045 59.3383 196.069C59.3966 196.094 59.4591 196.106 59.5222 196.106Z" fill="#407BFF"/>
<path opacity="0.7" d="M129.919 196.106H135.377C135.504 196.106 135.627 196.055 135.717 195.965C135.807 195.875 135.857 195.753 135.857 195.625C135.857 195.562 135.845 195.5 135.821 195.441C135.797 195.383 135.761 195.33 135.717 195.285C135.672 195.241 135.619 195.205 135.561 195.181C135.502 195.157 135.44 195.145 135.377 195.145H129.919C129.856 195.145 129.793 195.157 129.735 195.181C129.676 195.205 129.623 195.241 129.579 195.285C129.534 195.33 129.499 195.383 129.475 195.441C129.45 195.5 129.438 195.562 129.438 195.625C129.438 195.753 129.489 195.875 129.579 195.965C129.669 196.055 129.791 196.106 129.919 196.106Z" fill="white"/>
<path d="M54.024 195.144H57.5991C57.8173 195.144 57.9941 195.32 57.9941 195.539V195.71C57.9941 195.928 57.8173 196.105 57.5991 196.105H54.024C53.8058 196.105 53.629 195.928 53.629 195.71V195.539C53.629 195.32 53.8058 195.144 54.024 195.144Z" fill="#407BFF"/>
<path d="M171.289 186.533L166.509 110.711C166.484 110.394 166.342 110.099 166.111 109.882C165.879 109.665 165.575 109.542 165.258 109.538H41.8145C41.6632 109.536 41.5131 109.565 41.3739 109.624C41.2346 109.683 41.1092 109.771 41.0057 109.881C40.9021 109.992 40.8228 110.122 40.7728 110.265C40.7227 110.408 40.703 110.56 40.7149 110.711L45.4883 186.533C45.5145 186.85 45.6579 187.146 45.8905 187.363C46.123 187.579 46.428 187.702 46.7459 187.706H170.183C170.334 187.707 170.484 187.677 170.623 187.617C170.762 187.558 170.887 187.471 170.991 187.361C171.095 187.251 171.175 187.12 171.226 186.978C171.277 186.836 171.299 186.684 171.289 186.533Z" fill="white"/>
<path opacity="0.1" d="M101.179 107.184L142.296 185.358H172.629C172.781 185.36 172.932 185.33 173.072 185.271C173.212 185.212 173.338 185.124 173.442 185.013C173.546 184.902 173.626 184.77 173.677 184.627C173.727 184.483 173.747 184.33 173.735 184.179L168.955 108.362C168.93 108.046 168.789 107.749 168.557 107.531C168.326 107.313 168.022 107.189 167.704 107.184H101.179Z" fill="#407BFF"/>
<path opacity="0.1" d="M65.0975 107.184L106.214 185.358H115.801L74.6838 107.184H65.0975Z" fill="#407BFF"/>
<path opacity="0.1" d="M43.1407 108.363L47.9207 184.179C47.9438 184.497 48.0851 184.794 48.3167 185.012C48.5483 185.23 48.8534 185.354 49.1717 185.358H95.918L54.801 107.184H44.2666C44.1131 107.18 43.9604 107.208 43.8185 107.267C43.6765 107.325 43.5484 107.413 43.4423 107.524C43.3363 107.635 43.2546 107.767 43.2027 107.911C43.1507 108.056 43.1296 108.21 43.1407 108.363Z" fill="#407BFF"/>
<path opacity="0.4" d="M102.593 107.262C102.611 107.501 102.718 107.724 102.892 107.889C103.066 108.053 103.296 108.147 103.535 108.151C103.649 108.152 103.763 108.129 103.868 108.084C103.973 108.039 104.068 107.973 104.146 107.889C104.224 107.806 104.284 107.707 104.321 107.599C104.359 107.491 104.374 107.376 104.365 107.262C104.348 107.022 104.242 106.798 104.067 106.633C103.893 106.468 103.663 106.375 103.423 106.373C103.309 106.371 103.195 106.394 103.09 106.439C102.985 106.484 102.89 106.55 102.812 106.634C102.734 106.718 102.674 106.817 102.637 106.925C102.599 107.033 102.584 107.148 102.593 107.262Z" fill="white"/>
<path d="M122.958 89.0648C126.56 93.1876 128.64 105.826 125.974 112.043C123.307 118.26 154.245 124.483 128.719 134.586C103.193 144.689 82.7762 132.973 90.1635 122.508C97.5507 112.043 89.3668 94.6167 97.9194 90.2371C105.649 86.2461 115.742 80.7996 122.958 89.0648Z" fill="#22262A"/>
<path d="M130.629 139.971C131.979 144.581 133.414 149.191 134.902 153.801C136.39 158.411 137.937 162.969 139.577 167.546L140.202 169.271L140.518 170.134L140.617 170.391L140.775 170.779C140.874 171.03 141.025 171.3 141.157 171.556C141.8 172.732 142.761 173.704 143.929 174.362C144.989 174.938 146.172 175.25 147.379 175.271C149.07 175.279 150.747 174.95 152.31 174.303C153.59 173.783 154.829 173.169 156.017 172.465C160.334 169.81 164.29 166.609 167.789 162.942L164.951 159.597C163.997 160.209 162.976 160.861 161.989 161.474C161.001 162.086 159.967 162.679 158.967 163.265C157.006 164.413 154.981 165.448 152.903 166.367C151.956 166.785 150.978 167.13 149.979 167.401C149.289 167.63 148.558 167.715 147.833 167.651C147.649 167.651 147.682 167.546 147.833 167.605C147.984 167.664 148.149 167.835 148.156 167.816C148.162 167.796 148.156 167.816 148.156 167.776C148.153 167.763 148.153 167.75 148.156 167.737L148.103 167.572L147.853 166.722L147.346 165.01L143.323 151.18C141.953 146.57 140.545 141.96 139.096 137.35L130.629 139.971Z" fill="#D1D4D5"/>
<path d="M165.224 159.478L172.875 156.646L169.84 164.733C169.84 164.733 164.441 165.511 162.347 162.672L164.052 160.387C164.348 159.978 164.755 159.662 165.224 159.478Z" fill="#D1D4D5"/>
<path d="M179.504 158.99L176.594 165.622L169.687 164.713L172.729 156.625L179.504 158.99Z" fill="#D1D4D5"/>
<path d="M136.11 128.05C139.612 128.939 142.035 143.343 142.035 143.343L132.39 149.928C132.39 149.928 123.172 135.4 125.839 131.554C128.67 127.517 131.007 126.753 136.11 128.05Z" fill="#3632FF"/>
<path opacity="0.2" d="M136.11 128.05C139.612 128.939 142.035 143.343 142.035 143.343L132.39 149.928C132.39 149.928 123.172 135.4 125.839 131.554C128.67 127.517 131.007 126.753 136.11 128.05Z" fill="white"/>
<path opacity="0.2" d="M136.485 133.264L128.999 134.996L128.281 142.326C129.549 144.914 130.949 147.435 132.475 149.88L138.328 145.929C138.071 142.537 137.439 135.569 136.485 133.264Z" fill="black"/>
<path d="M136.129 128.052C136.129 128.052 140.178 129.474 132.073 179.303H97.5997C98.1791 165.268 98.1922 156.608 91.4897 127.808C96.3151 126.81 101.207 126.165 106.126 125.878C111.926 125.595 116.66 125.411 121.783 125.878C128.505 126.491 136.129 128.052 136.129 128.052Z" fill="#3632FF"/>
<path opacity="0.5" d="M136.129 128.052C136.129 128.052 140.178 129.474 132.073 179.303H97.5997C98.1791 165.268 98.1922 156.608 91.4897 127.808C96.3151 126.81 101.207 126.165 106.126 125.878C111.926 125.595 116.66 125.411 121.783 125.878C128.505 126.491 136.129 128.052 136.129 128.052Z" fill="#3632FF"/>
<path opacity="0.2" d="M99.5982 141.173L95.1475 144.966C96.0955 150.004 96.7342 154.186 97.1226 157.934C97.972 154.193 100.092 144.038 99.5982 141.173Z" fill="black"/>
<path d="M107.777 108.234C108.764 113.272 109.752 122.505 106.223 125.871C106.223 125.871 109.515 133.418 118.239 133.418C126.962 133.418 121.879 125.871 121.879 125.871C116.263 124.554 116.408 120.358 117.383 116.446L107.777 108.234Z" fill="#D1D4D5"/>
<path d="M107.309 123.995C108.138 125.674 110.811 129.514 118.278 130.884C118.485 130.922 118.699 130.879 118.877 130.765C120.272 129.79 121.142 127.729 120.529 125.338C120.489 125.191 120.49 125.036 120.533 124.89C120.576 124.744 120.659 124.613 120.773 124.511C120.887 124.41 121.026 124.342 121.176 124.316C121.327 124.29 121.481 124.306 121.622 124.364C122.196 124.604 122.747 124.895 123.268 125.233C123.383 125.309 123.476 125.413 123.538 125.536C124.085 126.563 126.297 131.595 119.621 134.697C119.514 134.742 119.401 134.769 119.285 134.776C115.334 134.855 108.428 134.078 104.063 126.214C103.985 126.072 103.95 125.91 103.963 125.749C103.976 125.587 104.036 125.433 104.135 125.305C104.722 124.663 105.403 124.114 106.156 123.679C106.251 123.618 106.358 123.578 106.469 123.56C106.581 123.543 106.694 123.55 106.803 123.58C106.912 123.61 107.013 123.662 107.1 123.734C107.187 123.805 107.258 123.894 107.309 123.995Z" fill="#FAFAFA"/>
<path d="M105.463 144.722L114.351 144.465C114.444 144.465 114.536 144.446 114.621 144.409C114.706 144.371 114.782 144.316 114.844 144.247C114.907 144.178 114.954 144.096 114.982 144.008C115.01 143.92 115.02 143.826 115.01 143.734L114.924 142.634C114.898 142.449 114.806 142.28 114.664 142.158C114.522 142.037 114.34 141.972 114.154 141.975L105.265 142.232C105.172 142.231 105.079 142.251 104.994 142.289C104.908 142.327 104.832 142.382 104.769 142.452C104.707 142.522 104.66 142.604 104.632 142.693C104.604 142.783 104.596 142.877 104.607 142.97L104.693 144.063C104.718 144.248 104.811 144.417 104.953 144.538C105.095 144.66 105.276 144.725 105.463 144.722Z" fill="#FAFAFA"/>
<path opacity="0.2" d="M111.64 111.601L117.328 116.454C117.084 117.365 116.921 118.295 116.841 119.234C114.701 118.924 111.751 116.566 111.521 114.321C111.395 113.414 111.435 112.493 111.64 111.601Z" fill="black"/>
<path d="M101.094 98.7232C102.681 107.002 103.175 110.538 107.942 114.272C115.112 119.897 124.929 116.13 125.837 107.548C126.66 99.823 123.928 87.5865 115.303 85.321C113.413 84.8186 111.426 84.8071 109.53 85.2876C107.634 85.7681 105.893 86.7247 104.47 88.0668C103.047 89.4089 101.99 91.092 101.4 92.9568C100.809 94.8217 100.704 96.8064 101.094 98.7232Z" fill="#D1D4D5"/>
<path d="M105.833 92.574C106.86 97.757 107.103 104.626 102.356 104.626C97.6094 104.626 93.8894 96.5452 97.9846 90.2162C102.08 83.8872 105.234 89.5181 105.833 92.574Z" fill="#263238"/>
<path d="M97.7009 93.2147C97.7009 98.8521 104.798 96.0663 107.939 93.6362C111.08 91.206 111.231 91.4694 117.051 91.4628C122.871 91.4562 124.037 91.0545 125.755 88.2753C127.474 85.4961 127.316 83.6652 123.444 84.2513C119.573 84.8375 122.825 80.886 119.942 78.6929C117.058 76.4998 113.641 77.053 109.697 82.0582C105.753 87.0635 97.7009 83.4479 97.7009 93.2147Z" fill="#22262A"/>
<path d="M99.7062 106.073C98.9594 103.525 99.692 101.068 101.342 100.584C102.993 100.099 104.936 101.773 105.683 104.321C106.43 106.869 105.697 109.326 104.047 109.811C102.396 110.295 100.453 108.621 99.7062 106.073Z" fill="white"/>
<path d="M112.83 112.429C114.358 112.429 115.87 112.118 117.274 111.514C117.304 111.502 117.331 111.484 117.354 111.461C117.377 111.438 117.395 111.41 117.408 111.38C117.42 111.35 117.426 111.318 117.426 111.286C117.425 111.253 117.419 111.221 117.406 111.191C117.378 111.131 117.329 111.084 117.267 111.06C117.206 111.035 117.138 111.035 117.076 111.06C115.753 111.628 114.33 111.924 112.89 111.932C111.451 111.94 110.024 111.659 108.695 111.106C107.402 110.577 106.228 109.794 105.242 108.805C104.256 107.815 103.478 106.638 102.954 105.343C100.979 99.6859 98.9639 92.6259 101.295 88.2199C101.764 87.3624 102.412 86.6165 103.196 86.0333C103.981 85.4501 104.882 85.0435 105.838 84.8414C105.901 84.8244 105.955 84.7831 105.989 84.7264C106.022 84.6697 106.031 84.6022 106.015 84.5384C105.998 84.475 105.957 84.4207 105.9 84.3875C105.844 84.3542 105.776 84.3446 105.712 84.3606C104.691 84.5805 103.729 85.0178 102.892 85.6428C102.054 86.2679 101.361 87.066 100.86 87.9828C98.4372 92.5337 100.458 99.732 102.493 105.495C103.045 106.854 103.863 108.09 104.9 109.128C105.937 110.167 107.172 110.987 108.53 111.54C109.892 112.113 111.353 112.415 112.83 112.429Z" fill="white"/>
<path opacity="0.6" d="M99.9966 106.068C100.583 108.044 101.926 109.434 102.999 109.124C104.072 108.814 104.467 106.931 103.881 104.929C103.295 102.927 101.952 101.557 100.879 101.873C99.8057 102.189 99.4106 104.066 99.9966 106.068Z" fill="#407BFF"/>
<path d="M116.674 110.427L119.253 109.929C119.707 109.842 120.145 110.139 120.233 110.592L120.261 110.741C120.349 111.195 120.052 111.633 119.599 111.721L117.019 112.218C116.566 112.306 116.127 112.009 116.04 111.556L116.011 111.407C115.924 110.953 116.22 110.515 116.674 110.427Z" fill="white"/>
<path d="M120.098 99.3779C120.098 99.3779 121.626 102.151 123.074 103.395C122.291 104.35 120.711 104.166 120.711 104.166L120.098 99.3779Z" fill="#E1948C"/>
<path d="M118.498 107.737H118.438C116.946 107.855 115.464 107.404 114.29 106.473C114.266 106.448 114.253 106.415 114.253 106.381C114.253 106.346 114.266 106.313 114.29 106.289C114.302 106.277 114.316 106.267 114.331 106.261C114.346 106.255 114.363 106.251 114.379 106.251C114.396 106.251 114.412 106.255 114.427 106.261C114.443 106.267 114.456 106.277 114.468 106.289C115.588 107.169 116.997 107.599 118.419 107.494C118.435 107.491 118.453 107.492 118.469 107.496C118.486 107.5 118.502 107.508 118.515 107.518C118.529 107.529 118.54 107.542 118.548 107.557C118.557 107.572 118.562 107.589 118.563 107.606C118.567 107.632 118.562 107.658 118.551 107.682C118.539 107.705 118.52 107.725 118.498 107.737Z" fill="#263238"/>
<path d="M111.099 96.123C111.061 96.1438 111.02 96.1546 110.977 96.1546C110.934 96.1546 110.892 96.1438 110.855 96.123C110.799 96.0853 110.759 96.0273 110.744 95.961C110.729 95.8948 110.741 95.8254 110.776 95.7673C111.091 95.2399 111.527 94.7952 112.048 94.4699C112.569 94.1446 113.16 93.9482 113.772 93.897C113.841 93.897 113.907 93.9238 113.956 93.9718C114.005 94.0198 114.033 94.0851 114.035 94.1538C114.035 94.2208 114.009 94.2852 113.962 94.3331C113.916 94.3811 113.852 94.4089 113.785 94.4107C113.258 94.461 112.75 94.6351 112.302 94.9189C111.855 95.2027 111.481 95.5882 111.211 96.044C111.181 96.08 111.142 96.1073 111.099 96.123Z" fill="#263238"/>
<path d="M114.873 99.4975C114.985 100.156 115.439 100.663 115.887 100.591C116.335 100.518 116.592 99.9322 116.48 99.2209C116.368 98.5097 115.907 98.0552 115.466 98.1277C115.025 98.2001 114.755 98.8192 114.873 99.4975Z" fill="#263238"/>
<path d="M122.457 98.1921C122.569 98.8507 123.023 99.3578 123.471 99.2854C123.919 99.2129 124.176 98.5939 124.064 97.9155C123.952 97.2372 123.491 96.7432 123.05 96.8223C122.609 96.9013 122.339 97.5072 122.457 98.1921Z" fill="#263238"/>
<path d="M122.782 96.9139L124.336 96.1631C124.336 96.1631 123.717 97.579 122.782 96.9139Z" fill="#263238"/>
<path d="M115.235 98.2178L116.789 97.4736C116.789 97.4736 116.17 98.8896 115.235 98.2178Z" fill="#263238"/>
<path d="M125.003 93.625C124.963 93.6488 124.918 93.6614 124.872 93.6614C124.825 93.6614 124.78 93.6488 124.74 93.625C124.334 93.2834 123.851 93.0451 123.333 92.9305C122.814 92.8158 122.276 92.8281 121.764 92.9664C121.699 92.9891 121.628 92.9852 121.567 92.9556C121.505 92.926 121.457 92.873 121.435 92.8084C121.412 92.7437 121.416 92.6727 121.446 92.611C121.475 92.5492 121.528 92.5018 121.593 92.4791C122.184 92.3108 122.806 92.2875 123.408 92.4114C124.01 92.5352 124.573 92.8024 125.049 93.1903C125.077 93.2098 125.1 93.2347 125.117 93.2636C125.135 93.2925 125.146 93.3246 125.15 93.358C125.155 93.3915 125.152 93.4254 125.143 93.4578C125.133 93.4901 125.117 93.5202 125.095 93.546C125.073 93.5811 125.041 93.6086 125.003 93.625Z" fill="#263238"/>
<path d="M133.385 187.682C133.385 187.682 133.478 182.966 132.069 179.285H97.6015C97.6015 179.285 94.5004 184.29 93.6972 187.682H133.385Z" fill="#407BFF"/>
<path d="M97.2042 177.276L96.9342 180.359C96.8091 180.602 97.0922 180.846 97.4939 180.846H132.389C132.698 180.846 132.955 180.694 132.975 180.497L133.291 177.408C133.291 177.197 133.041 177.013 132.698 177.013H97.8033C97.6891 177.001 97.5738 177.019 97.4687 177.065C97.3636 177.111 97.2724 177.184 97.2042 177.276Z" fill="#407BFF"/>
<path opacity="0.3" d="M97.2042 177.276L96.9342 180.359C96.8091 180.602 97.0922 180.846 97.4939 180.846H132.389C132.698 180.846 132.955 180.694 132.975 180.497L133.291 177.408C133.291 177.197 133.041 177.013 132.698 177.013H97.8033C97.6891 177.001 97.5738 177.019 97.4687 177.065C97.3636 177.111 97.2724 177.184 97.2042 177.276Z" fill="#FAFAFA"/>
<path d="M101.8 181.158H100.865C100.674 181.158 100.536 181.066 100.549 180.948L100.983 176.937C100.983 176.818 101.161 176.726 101.346 176.726H102.3C102.491 176.726 102.629 176.818 102.616 176.937L102.182 180.948C102.149 181.066 101.984 181.158 101.8 181.158Z" fill="#407BFF"/>
<path d="M129.7 181.156H128.765C128.581 181.156 128.436 181.064 128.449 180.945L128.89 176.934C128.89 176.816 129.061 176.724 129.252 176.724H130.187C130.371 176.724 130.516 176.816 130.503 176.934L130.062 180.945C130.049 181.064 129.884 181.156 129.7 181.156Z" fill="#407BFF"/>
<path d="M115.675 181.156H114.767C114.583 181.156 114.438 181.064 114.451 180.945L114.892 176.934C114.892 176.816 115.07 176.724 115.254 176.724H116.189C116.373 176.724 116.518 176.816 116.505 176.934L116.064 180.945C116.024 181.064 115.866 181.156 115.675 181.156Z" fill="#407BFF"/>
<path d="M88.6544 137.567C87.1401 142.484 85.685 147.428 84.2892 152.398L82.1889 159.814L81.142 163.502L80.8787 164.411L80.747 164.865L80.7141 164.971L80.8194 164.806C80.9858 164.568 81.1905 164.358 81.4252 164.187C81.9404 163.812 82.5533 163.595 83.1897 163.561C83.6705 163.538 84.1496 163.633 84.5855 163.838C85.0595 164.095 85.0134 164.154 84.9739 164.108C84.8623 164.011 84.7608 163.903 84.6711 163.785C84.3607 163.397 84.0748 162.99 83.8151 162.567C83.2358 161.618 82.6629 160.551 82.1231 159.458C81.0038 157.272 79.9964 154.954 78.9759 152.622C77.9554 150.291 77.0007 147.933 76.0131 145.556C75.0255 143.178 74.084 140.787 73.1096 138.43L68.9024 139.681C69.9953 144.818 71.2726 149.863 72.8528 154.888C73.6297 157.41 74.4922 159.906 75.4864 162.435C75.9999 163.7 76.5464 164.964 77.2246 166.275C77.5862 166.984 77.9907 167.67 78.436 168.329C78.7128 168.743 79.0209 169.135 79.3578 169.502C79.8921 170.108 80.541 170.603 81.2671 170.957C81.9919 171.31 82.7926 171.477 83.5979 171.444C84.5525 171.391 85.4696 171.054 86.2315 170.476C86.717 170.11 87.1377 169.665 87.4758 169.159C87.6898 168.835 87.877 168.493 88.0355 168.138C88.0947 167.993 88.1606 167.842 88.2067 167.71L88.3318 167.388L88.5029 166.92L88.8453 165.991C89.293 164.76 89.7473 163.528 90.1621 162.297C91.0049 159.834 91.8476 157.377 92.6377 154.907C94.253 149.972 95.7585 145.013 97.1543 140.03L88.6544 137.567Z" fill="#D1D4D5"/>
<path d="M91.5171 127.782C88.0605 128.829 82.7735 142.39 82.7735 142.39L96.1719 151.972C96.1719 151.972 102.196 140.381 100.748 135.916C99.2335 131.266 95.4543 126.584 91.5171 127.782Z" fill="#3632FF"/>
<path opacity="0.2" d="M91.5171 127.782C88.0605 128.829 82.7735 142.39 82.7735 142.39L96.1719 151.972C96.1719 151.972 102.196 140.381 100.748 135.916C99.2335 131.266 95.4543 126.584 91.5171 127.782Z" fill="white"/>
<path d="M72.9463 140.22L74.7832 132.119L67.1458 136.15C67.1458 136.15 67.0536 141.603 70.1349 143.322L72.9463 140.22Z" fill="#D1D4D5"/>
<path d="M71.5834 125.707L66.7112 129.164L67.1458 136.165L74.7832 132.134L71.5834 125.707Z" fill="#D1D4D5"/>
<path d="M201.024 66.9711H147.694C146.676 66.961 145.667 67.1624 144.73 67.5625C143.794 67.9626 142.95 68.5527 142.254 69.2955C141.557 70.0382 141.022 70.9175 140.682 71.8778C140.342 72.838 140.206 73.8583 140.28 74.8741L141.768 99.0178C141.932 101.143 142.882 103.131 144.434 104.593C145.985 106.054 148.026 106.884 150.156 106.921H156.332L153.811 115.212L165.872 106.921H203.467C204.485 106.931 205.494 106.729 206.431 106.329C207.367 105.929 208.211 105.339 208.907 104.596C209.604 103.854 210.139 102.974 210.479 102.014C210.818 101.054 210.955 100.034 210.881 99.0178L209.406 74.8741C209.242 72.7498 208.293 70.7628 206.743 69.3013C205.193 67.8399 203.154 67.009 201.024 66.9711Z" fill="url(#paint2_linear_193_165)"/>
<path d="M152.663 79.6157H197.764C197.955 79.6147 198.144 79.5738 198.319 79.4958C198.494 79.4178 198.651 79.3044 198.78 79.1626C198.908 79.0208 199.006 78.8538 199.067 78.6722C199.128 78.4906 199.15 78.2983 199.133 78.1075C199.104 77.7078 198.926 77.3336 198.635 77.0582C198.344 76.7829 197.96 76.6263 197.559 76.6191H152.453C152.262 76.6196 152.074 76.6592 151.899 76.7355C151.725 76.8118 151.568 76.9232 151.438 77.0628C151.308 77.2024 151.209 77.3672 151.145 77.5469C151.082 77.7266 151.056 77.9175 151.07 78.1075C151.093 78.5147 151.271 78.8975 151.567 79.1778C151.864 79.4581 152.256 79.6147 152.663 79.6157Z" fill="white"/>
<path d="M168.612 88.431H187.534C187.726 88.4324 187.916 88.3941 188.092 88.3186C188.268 88.2431 188.426 88.1319 188.558 87.9921C188.689 87.8523 188.789 87.6869 188.854 87.5063C188.918 87.3257 188.944 87.1338 188.93 86.9426C188.9 86.5418 188.722 86.1666 188.429 85.8911C188.137 85.6156 187.752 85.4597 187.35 85.4542H168.408C168.216 85.4519 168.025 85.4895 167.848 85.5646C167.671 85.6397 167.512 85.7507 167.38 85.8906C167.248 86.0305 167.147 86.1962 167.082 86.3773C167.018 86.5584 166.992 86.7509 167.005 86.9426C167.037 87.3474 167.22 87.7254 167.517 88.0012C167.815 88.2771 168.206 88.4306 168.612 88.431Z" fill="white"/>
<path d="M157.516 97.2484H193.194C193.386 97.2498 193.576 97.2115 193.752 97.136C193.928 97.0605 194.087 96.9493 194.218 96.8095C194.349 96.6697 194.45 96.5043 194.514 96.3237C194.578 96.1431 194.604 95.9512 194.59 95.76C194.562 95.3586 194.384 94.9826 194.091 94.7068C193.798 94.4309 193.412 94.2756 193.01 94.2716H157.331C157.14 94.2692 156.949 94.3068 156.773 94.382C156.596 94.4572 156.437 94.5683 156.306 94.7083C156.175 94.8483 156.074 95.0141 156.01 95.1952C155.946 95.3762 155.921 95.5686 155.936 95.76C155.965 96.1608 156.144 96.536 156.436 96.8115C156.729 97.087 157.114 97.2429 157.516 97.2484Z" fill="white"/>
<path d="M154.86 88.431H162.319C162.511 88.4324 162.701 88.3941 162.877 88.3186C163.053 88.2431 163.212 88.1319 163.343 87.9921C163.474 87.8524 163.575 87.687 163.639 87.5063C163.703 87.3257 163.729 87.1338 163.715 86.9426C163.684 86.5423 163.505 86.168 163.213 85.8928C162.921 85.6176 162.536 85.4612 162.135 85.4542H154.682C154.49 85.4518 154.3 85.4894 154.123 85.5646C153.947 85.6398 153.788 85.7509 153.656 85.8909C153.525 86.0309 153.424 86.1967 153.361 86.3778C153.297 86.5589 153.272 86.7512 153.286 86.9426C153.316 87.3423 153.493 87.7165 153.785 87.9919C154.076 88.2673 154.459 88.4239 154.86 88.431Z" fill="white"/>
<path d="M157.743 23.5696H128.668C127.01 23.5945 125.421 24.2387 124.214 25.3757C123.006 26.5127 122.268 28.0602 122.143 29.7142L121.011 48.5102C120.954 49.3004 121.062 50.0938 121.327 50.8403C121.593 51.5868 122.01 52.2702 122.552 52.8475C123.095 53.4248 123.751 53.8834 124.479 54.1945C125.208 54.5055 125.993 54.6622 126.785 54.6548H131.545L128.793 61.1089L138.972 54.6548H155.84C157.498 54.6299 159.087 53.9856 160.294 52.8486C161.501 51.7117 162.24 50.1641 162.365 48.5102L163.517 29.7142C163.573 28.9239 163.465 28.1305 163.2 27.384C162.935 26.6375 162.518 25.9541 161.975 25.3768C161.433 24.7995 160.777 24.3409 160.048 24.0299C159.32 23.7188 158.535 23.5621 157.743 23.5696Z" fill="url(#paint3_linear_193_165)"/>
<path d="M143.743 42.1862C143.643 42.6001 143.407 42.9685 143.073 43.2324C142.739 43.4962 142.326 43.6404 141.9 43.6417H140.182C140.182 43.1543 140.221 42.858 140.228 42.7526C140.252 41.8033 140.496 40.8726 140.939 40.0326C141.561 39.0963 142.351 38.2835 143.269 37.6354C144.002 37.1045 144.693 36.5189 145.337 35.8835C145.678 35.4792 145.881 34.976 145.916 34.4478C145.942 34.0979 145.887 33.7466 145.756 33.4212C145.625 33.0958 145.42 32.8049 145.159 32.5709C144.52 32.0235 143.694 31.745 142.855 31.7937C141.972 31.7696 141.109 32.0589 140.419 32.6104C140.008 32.9488 139.672 33.368 139.431 33.8419C139.253 34.1881 138.977 34.474 138.637 34.6638C138.298 34.8537 137.91 34.9389 137.522 34.9088C137.242 34.8743 136.977 34.7699 136.748 34.6052C136.52 34.4406 136.337 34.2211 136.217 33.967C136.096 33.7129 136.041 33.4324 136.058 33.1516C136.074 32.8707 136.161 32.5985 136.31 32.3601C136.707 31.6932 137.218 31.1004 137.818 30.6083C139.245 29.461 141.039 28.8691 142.868 28.9421C145.021 28.9421 146.693 29.5019 147.898 30.628C148.462 31.1131 148.906 31.7224 149.195 32.408C149.484 33.0936 149.61 33.8369 149.564 34.5795C149.503 35.4236 149.212 36.2348 148.721 36.9241C147.796 38.0632 146.727 39.0771 145.541 39.9404C144.926 40.3697 144.395 40.9075 143.974 41.5276C143.867 41.7353 143.789 41.957 143.743 42.1862ZM139.984 46.9148V46.7041C140.019 46.2282 140.231 45.7826 140.578 45.4557C140.926 45.1288 141.383 44.9444 141.86 44.9391H142.097C142.326 44.9357 142.552 44.9799 142.762 45.0687C142.972 45.1576 143.162 45.2892 143.318 45.4551C143.475 45.6211 143.595 45.8178 143.672 46.0328C143.749 46.2479 143.78 46.4764 143.763 46.7041V46.9148C143.729 47.3914 143.517 47.8377 143.169 48.1657C142.822 48.4936 142.364 48.6794 141.887 48.6864H141.676C141.445 48.6936 141.215 48.652 141.001 48.5644C140.788 48.4769 140.595 48.3452 140.435 48.1781C140.275 48.011 140.153 47.8122 140.075 47.5945C139.997 47.3769 139.966 47.1453 139.984 46.9148Z" fill="white"/>
<path d="M189.091 129.949L186.643 142.112L168.58 138.473L171.028 126.31L189.091 129.949Z" fill="#527493"/>
<path d="M187.082 144.795L188.054 144.99C189.517 145.281 191.044 143.757 191.479 141.585L193.33 132.3C193.765 130.128 192.929 128.127 191.472 127.841L190.501 127.646C189.967 127.541 189.411 128.091 189.26 128.881L186.404 143.177C186.253 143.967 186.555 144.695 187.082 144.795Z" fill="#A36652"/>
<path d="M189.155 144.893C190.223 144.481 191.165 143.22 191.491 141.588L193.341 132.303C193.667 130.671 193.283 129.143 192.449 128.351L189.155 144.893Z" fill="#527493"/>
<path d="M167.631 140.949L166.652 140.75C165.183 140.454 164.348 138.436 164.797 136.244L166.691 126.892C167.135 124.707 168.689 123.172 170.159 123.468L171.137 123.667C171.671 123.772 171.976 124.51 171.814 125.303L168.887 139.705C168.731 140.502 168.164 141.054 167.631 140.949Z" fill="#A36652"/>
<path d="M165.673 140.227C164.839 139.435 164.457 137.889 164.792 136.244L166.686 126.892C167.021 125.247 167.978 123.977 169.053 123.569L165.673 140.227Z" fill="#527493"/>
<path d="M170.372 140.373L172.031 140.468C175.715 140.673 179.352 141.41 182.832 142.657L184.278 143.176L187.316 128.072L185.022 128.082C181.799 128.107 178.614 127.468 175.649 126.209L173.414 125.262L170.372 140.373Z" fill="#E2B74B"/>
<path d="M170.74 140.741L170.751 140.739C171.063 140.802 171.361 140.598 171.42 140.293L174.349 125.729C174.412 125.417 174.208 125.119 173.903 125.06L173.892 125.062C173.58 124.998 173.281 125.203 173.222 125.508L170.293 140.072C170.234 140.377 170.434 140.682 170.74 140.741Z" fill="#A36652"/>
<path d="M184.534 143.522L184.551 143.525C184.864 143.588 185.162 143.384 185.221 143.078L188.15 128.515C188.213 128.203 188.009 127.904 187.703 127.845L187.692 127.848C187.38 127.784 187.082 127.988 187.023 128.294L184.094 142.857C184.028 143.158 184.233 143.457 184.534 143.522Z" fill="#A36652"/>
<path d="M165.448 182.799L175.15 146.68L177.559 147.607L170.242 183.936C169.718 186.423 168.692 186.804 167.349 186.497C166 186.185 164.821 185.281 165.448 182.799Z" fill="#527493"/>
<path d="M173.469 146.362C173.545 146.045 174.095 145.885 174.768 145.967C174.22 144.093 174.181 141.923 175.551 140.535L176.171 140.638L179.335 141.335L179.937 141.504C180.563 143.364 179.572 145.309 178.24 146.753C178.896 146.969 179.337 147.356 179.263 147.684L179.26 147.701C179.177 148.071 178.447 148.223 177.624 148.036L174.789 147.384C173.976 147.195 173.38 146.739 173.464 146.369L173.469 146.362Z" fill="#527493"/>
<defs>
<linearGradient id="paint0_linear_193_165" x1="0.623047" y1="44.6626" x2="89.6542" y2="44.6626" gradientUnits="userSpaceOnUse">
<stop stop-color="#5671FF"/>
<stop offset="1" stop-color="white"/>
</linearGradient>
<linearGradient id="paint1_linear_193_165" x1="-1.20575e-06" y1="134.37" x2="179.926" y2="134.37" gradientUnits="userSpaceOnUse">
<stop stop-color="#0D33B7"/>
<stop offset="1" stop-color="#4EACE9"/>
</linearGradient>
<linearGradient id="paint2_linear_193_165" x1="210.9" y1="93.2843" x2="140.261" y2="93.2843" gradientUnits="userSpaceOnUse">
<stop stop-color="#01188F"/>
<stop offset="1" stop-color="#ECF8FF"/>
</linearGradient>
<linearGradient id="paint3_linear_193_165" x1="120.996" y1="42.3391" x2="162.376" y2="42.3391" gradientUnits="userSpaceOnUse">
<stop stop-color="#91D9F8"/>
<stop offset="1" stop-color="#4EACE9"/>
</linearGradient>
</defs>
</svg>
