<svg width="25" height="25" viewBox="0 0 25 25" fill="none" xmlns="http://www.w3.org/2000/svg">
<path d="M2.5 7.91211L10.6649 13.6276C11.3261 14.0904 11.6567 14.3218 12.0163 14.4114C12.3339 14.4906 12.6661 14.4906 12.9837 14.4114C13.3433 14.3218 13.6739 14.0904 14.3351 13.6276L22.5 7.91211M7.3 20.9121H17.7C19.3802 20.9121 20.2202 20.9121 20.862 20.5851C21.4265 20.2975 21.8854 19.8386 22.173 19.2741C22.5 18.6323 22.5 17.7923 22.5 16.1121V9.71211C22.5 8.03195 22.5 7.19187 22.173 6.55014C21.8854 5.98565 21.4265 5.52671 20.862 5.23909C20.2202 4.91211 19.3802 4.91211 17.7 4.91211H7.3C5.61984 4.91211 4.77976 4.91211 4.13803 5.23909C3.57354 5.52671 3.1146 5.98565 2.82698 6.55014C2.5 7.19187 2.5 8.03195 2.5 9.71211V16.1121C2.5 17.7923 2.5 18.6323 2.82698 19.2741C3.1146 19.8386 3.57354 20.2975 4.13803 20.5851C4.77976 20.9121 5.61984 20.9121 7.3 20.9121Z" stroke="white" stroke-width="1.6" stroke-linecap="round" stroke-linejoin="round"/>
</svg>
